<mxfile host="app.diagrams.net" modified="2024-03-12T12:00:04.892Z" agent="Mozilla/5.0 (Windows NT 10.0; Win64; x64) AppleWebKit/537.36 (KHTML, like Gecko) Chrome/121.0.0.0 Safari/537.36 OPR/107.0.0.0" version="24.0.4" etag="lMxUFtcH8NYT9KruSYJR" type="github">
  <diagram name="Страница — 1" id="3u6c3xyvKsnheR_rWYZ0">
    <mxGraphModel>
      <root>
        <mxCell id="0" />
        <mxCell id="1" parent="0" />
      </root>
    </mxGraphModel>
  </diagram>
</mxfile>
